#!OML:ASF F:\VICON\USERDATA\INSTALL\rory3\rory3.ASF
:FULLY-SPECIFIED
:DEGREES
2774
root -2.12098 17.8346 -5.97222 -93.3243 81.507 -101.377
lowerback 6.55313 0.043287 -9.13343
upperback 1.45267 -0.522205 -2.39335
thorax -2.10223 -0.175866 2.67534
lowerneck -8.35296 -15.9616 -14.7528
upperneck 22.0207 -22.2326 10.6455
head 11.4191 -10.438 2.90502
rclavicle 1.27222e-014 -9.54166e-015
rhumerus -23.5358 13.8491 -87.5844
rradius 62.7396
rwrist 8.63386
rhand -26.2985 10.6407
rfingers 7.12502
rthumb 0.257419 -19.3389
lclavicle 1.27222e-014 -9.54166e-015
lhumerus -40.1601 10.8733 68.39
lradius 46.008
lwrist 0.554912
lhand -13.7645 27.3457
lfingers 7.12502
lthumb 12.3562 -303.039
rfemur -26.6049 -16.1572 23.433
rtibia 34.6191
rfoot -16.0939 -9.54397
rtoes 9.68207
lfemur -19.3749 2.90504 -13.824
ltibia 33.4497
lfoot -18.4875 4.63145
ltoes -14.6209
2775
root -2.09713 17.8221 -5.98084 -90.5475 81.6963 -98.3017
lowerback 6.66824 -0.122914 -9.02392
upperback 1.41389 -0.752709 -2.4503
thorax -2.18358 -0.286439 2.57501
lowerneck -8.48125 -15.9538 -14.6147
upperneck 21.8293 -22.2351 10.697
head 11.3598 -10.4246 2.89736
rclavicle 3.97569e-015 5.40694e-014
rhumerus -24.2058 12.5475 -87.3352
rradius 62.2595
rwrist 7.90336
rhand -26.5588 10.1311
rfingers 7.12502
rthumb 0.00599547 -19.8487
lclavicle 3.97569e-015 5.40694e-014
lhumerus -39.9875 10.3834 68.6329
lradius 45.7193
lwrist 0.823599
lhand -13.239 27.0845
lfingers 7.12502
lthumb 12.8628 -303.332
rfemur -26.7147 -16.8079 23.7148
rtibia 34.6448
rfoot -15.7017 -8.94052
rtoes 8.26018
lfemur -18.8455 3.09451 -14.0099
ltibia 33.4145
lfoot -18.6674 4.87921
ltoes -14.7411
2776
root -2.07314 17.817 -5.98836 -87.7247 81.8939 -95.2721
lowerback 6.73205 -0.306443 -9.02727
upperback 1.32088 -1.01256 -2.45624
thorax -2.28798 -0.409374 2.59296
lowerneck -8.69781 -15.9983 -14.4351
upperneck 21.8475 -22.2473 10.4422
head 11.3502 -10.4325 2.76784
rclavicle -3.18055e-015 -9.54166e-015
rhumerus -24.8172 11.335 -86.9031
rradius 61.7432
rwrist 7.11089
rhand -26.7394 9.73804
rfingers 7.12502
rthumb -0.168371 -20.2416
lclavicle -3.18055e-015 -9.54166e-015
lhumerus -39.9115 9.93712 68.9261
lradius 45.4749
lwrist 0.886216
lhand -12.9395 26.9109
lfingers 7.12502
lthumb 13.1516 -303.524
rfemur -26.8514 -17.1428 23.9409
rtibia 34.5496
rfoot -15.3514 -8.62242
rtoes 6.51379
lfemur -18.4395 3.30729 -14.2144
ltibia 33.4289
lfoot -18.8189 5.03999
ltoes -14.661
2777
root -2.05173 17.8154 -5.99305 -84.7882 81.8168 -92.2232
lowerback 6.71848 -0.524341 -8.90264
upperback 1.21708 -1.30228 -2.35975
thorax -2.35787 -0.550776 2.64843
lowerneck -8.64981 -15.8844 -14.2583
upperneck 21.4165 -22.1246 10.6002
head 11.1602 -10.3652 2.83556
rclavicle -2.38542e-014 -3.18055e-014
rhumerus -25.2563 10.1941 -86.4195
rradius 61.1104
rwrist 6.27076
rhand -26.8144 9.40922
rfingers 7.12502
rthumb -0.240864 -20.5704
lclavicle -2.38542e-014 -3.18055e-014
lhumerus -39.7942 9.74814 69.1385
lradius 45.1918
lwrist 0.616816
lhand -12.8034 26.9397
lfingers 7.12502
lthumb 13.2827 -303.504
rfemur -27.0028 -17.1079 24.41
rtibia 34.3565
rfoot -15.1796 -8.45991
rtoes 5.05838
lfemur -18.1504 3.5555 -14.1021
ltibia 33.438
lfoot -18.9209 5.06417
ltoes -14.8179
2778
root -2.03173 17.8126 -6.00036 -82.0925 81.7611 -89.4568
lowerback 6.64626 -0.744528 -8.72376
upperback 1.14304 -1.58184 -2.34417
thorax -2.36873 -0.689855 2.58728
lowerneck -8.44314 -15.7281 -14.0025
upperneck 20.7455 -22.0034 10.9843
head 10.8739 -10.2864 2.98511
rclavicle -1.35174e-014 -3.18055e-014
rhumerus -25.6088 8.78901 -86.0009
rradius 60.475
rwrist 5.59331
rhand -27.0289 8.98241
rfingers 7.12502
rthumb -0.448019 -20.9969
lclavicle -1.35174e-014 -3.18055e-014
lhumerus -39.5496 9.39123 69.2895
lradius 44.918
lwrist 0.333122
lhand -12.6098 27.0098
lfingers 7.12502
lthumb 13.4693 -303.446
rfemur -27.1512 -17.0289 24.8019
rtibia 34.1043
rfoot -15.1312 -8.15999
rtoes 4.83864
lfemur -17.9174 3.59777 -14.0247
ltibia 33.4482
lfoot -19.0912 5.12594
ltoes -14.3557
2779
root -2.01157 17.8102 -6.00497 -79.1882 81.6723 -86.5825
lowerback 6.44009 -0.945019 -8.5669
upperback 1.08784 -1.82082 -2.23824
thorax -2.28693 -0.813753 2.62493
lowerneck -8.55417 -15.7177 -14.0145
upperneck 20.4242 -21.9972 11.1753
head 10.802 -10.2714 3.04745
rclavicle -1.59028e-014 -1.59028e-014
rhumerus -25.8429 7.6418 -85.3348
rradius 60.0053
rwrist 4.65316
rhand -27.3794 8.13538
rfingers 7.12502
rthumb -0.786542 -21.8429
lclavicle -1.59028e-014 -1.59028e-014
lhumerus -39.2122 9.03324 69.632
lradius 44.6547
lwrist 0.165867
lhand -12.0016 26.725
lfingers 7.12502
lthumb 14.0555 -303.77
rfemur -27.361 -16.9094 25.2501
rtibia 33.7802
rfoot -14.9361 -7.84549
rtoes 4.43143
lfemur -17.8144 3.74335 -13.9532
ltibia 33.4948
lfoot -19.294 5.20706
ltoes -13.896
2780
root -1.99165 17.805 -6.00645 -76.089 81.5484 -83.479
lowerback 6.39426 -1.1027 -8.4448
upperback 0.905535 -2.0335 -2.06698
thorax -2.42722 -0.913552 2.75257
lowerneck -8.61677 -15.7194 -14.0844
upperneck 20.2994 -21.9626 11.1338
head 10.7658 -10.2655 3.04565
rclavicle 2.74323e-014 1.90833e-014
rhumerus -26.2545 6.95085 -84.5113
rradius 59.6323
rwrist 3.3061
rhand -27.6829 7.36367
rfingers 7.12502
rthumb -1.07968 -22.6133
lclavicle 2.74323e-014 1.90833e-014
lhumerus -39.114 8.66376 70.0118
lradius 44.4542
lwrist 0.0398837
lhand -11.8693 26.9773
lfingers 7.12502
lthumb 14.1829 -303.527
rfemur -27.4889 -16.578 25.6476
rtibia 33.4262
rfoot -14.7524 -7.53826
rtoes 4.13487
lfemur -17.6838 4.07906 -13.8778
ltibia 33.5429
lfoot -19.4424 5.20085
ltoes -13.5534
2781
root -1.96892 17.7954 -6.0084 -73.79 81.4995 -81.0017
lowerback 6.5952 -1.21927 -8.25325
upperback 0.728759 -2.21177 -2.02327
thorax -2.71094 -0.990221 2.71423
lowerneck -8.68654 -15.7097 -13.9876
upperneck 20.2961 -21.962 11.133
head 10.765 -10.2548 3.02823
rclavicle -5.56597e-015 -4.77083e-014
rhumerus -26.7451 5.84152 -83.7478
rradius 59.161
rwrist 2.24806
rhand -27.7768 7.08309
rfingers 7.12502
rthumb -1.1703 -22.8934
lclavicle -5.56597e-015 -4.77083e-014
lhumerus -39.0266 8.0161 70.324
lradius 44.3226
lwrist 0.00417572
lhand -12.0291 27.5742
lfingers 7.12502
lthumb 14.029 -302.919
rfemur -27.3778 -16.2415 25.8196
rtibia 33.0581
rfoot -14.6379 -7.13566
rtoes 4.30098
lfemur -17.3578 4.3131 -13.8813
ltibia 33.5869
lfoot -19.5611 5.21194
ltoes -13.3559
2782
root -1.94437 17.7845 -6.00911 -71.6881 81.5134 -78.6836
lowerback 6.74055 -1.28718 -8.06645
upperback 0.691853 -2.30759 -2.00053
thorax -2.82729 -1.03531 2.64713
lowerneck -9.03156 -15.8044 -14.0845
upperneck 20.383 -22.0894 11.2434
head 10.9059 -10.288 3.02284
rclavicle 2.34566e-014 3.18055e-014
rhumerus -27.0057 4.28179 -82.7788
rradius 58.6657
rwrist 1.38506
rhand -27.5683 7.13317
rfingers 7.12502
rthumb -0.968988 -22.8444
lclavicle 2.34566e-014 3.18055e-014
lhumerus -38.6148 7.37658 70.7563
lradius 44.1425
lwrist 0.0394334
lhand -11.6224 27.1986
lfingers 7.12502
lthumb 14.4209 -303.322
rfemur -27.1883 -15.9135 25.8594
rtibia 32.6798
rfoot -15.0776 -6.72258
rtoes 5.94779
lfemur -16.9629 4.48199 -13.9672
ltibia 33.6019
lfoot -19.7193 5.31556
ltoes -13.2526
2783
root -1.91911 17.7732 -6.00924 -68.413 81.5815 -75.2731
lowerback 6.70411 -1.34563 -8.01881
upperback 0.661424 -2.38108 -1.99817
thorax -2.8329 -1.0719 2.62849
lowerneck -9.35096 -15.8891 -14.0992
upperneck 20.3678 -22.1803 11.2513
head 10.9753 -10.3138 2.98331
rclavicle 1.63003e-014 -1.59028e-014
rhumerus -27.1444 2.85633 -81.7644
rradius 58.2144
rwrist 0.0229423
rhand -27.4306 7.2182
rfingers 7.12502
rthumb -0.835945 -22.7599
lclavicle 1.63003e-014 -1.59028e-014
lhumerus -38.1391 6.74438 71.1214
lradius 43.9129
lwrist -0.00502858
lhand -11.116 26.7199
lfingers 7.12502
lthumb 14.9088 -303.837
rfemur -27.0713 -15.5286 25.7927
rtibia 32.303
rfoot -15.7581 -6.37953
rtoes 7.09801
lfemur -16.6078 4.57667 -14.1933
ltibia 33.567
lfoot -19.8936 5.72187
ltoes -13.6724
2784
root -1.89633 17.7688 -6.00738 -64.7001 81.5868 -71.3578
lowerback 6.75055 -1.53349 -8.13026
upperback 0.606535 -2.64659 -1.87867
thorax -2.87827 -1.20001 2.8383
lowerneck -9.68869 -15.8334 -14.2491
upperneck 20.4275 -22.0207 11.1484
head 11.0426 -10.2435 2.9715
rclavicle -1.27222e-014 0
rhumerus -27.1937 2.0496 -80.8754
rradius 57.8285
rwrist -1.52354
rhand -27.4357 6.94085
rfingers 7.12502
rthumb -0.840862 -23.0372
lclavicle -1.27222e-014 0
lhumerus -37.92 6.84815 71.2183
lradius 43.6816
lwrist -0.887927
lhand -10.3668 26.5924
lfingers 7.12502
lthumb 15.6304 -304.019
rfemur -26.8909 -15.0511 25.7203
rtibia 31.9607
rfoot -15.5485 -6.30405
rtoes 4.39467
lfemur -16.1311 4.60978 -14.3789
ltibia 33.468
lfoot -20.0656 6.05033
ltoes -13.2894
2785
root -1.87594 17.7646 -6.00415 -61.3454 81.6539 -67.7484
lowerback 6.90458 -1.88765 -8.42842
upperback 0.544686 -3.15569 -1.58235
thorax -2.94191 -1.44575 3.35949
lowerneck -10.1449 -15.6276 -15.0291
upperneck 20.6246 -21.5886 11.2806
head 11.2553 -10.0603 3.16432
rclavicle -1.27222e-014 3.18055e-015
rhumerus -27.1069 1.67454 -79.9501
rradius 57.4472
rwrist -2.65683
rhand -27.2067 6.49367
rfingers 7.12502
rthumb -0.61975 -23.4852
lclavicle -1.27222e-014 3.18055e-015
lhumerus -37.9404 7.88255 71.2281
lradius 43.5442
lwrist -2.3198
lhand -8.95145 26.3446
lfingers 7.12502
lthumb 16.9932 -304.379
rfemur -26.6468 -14.4718 25.4924
rtibia 31.66
rfoot -15.0938 -6.24353
rtoes 3.07282
lfemur -15.617 4.85203 -14.632
ltibia 33.3361
lfoot -20.2051 6.08105
ltoes -13.2097
